<?xml version="1.0" encoding="UTF-8" standalone="no"?>
<!-- Created with Inkscape (http://www.inkscape.org/) -->

<svg
   width="512"
   height="512"
   viewBox="0 0 512 512"
   version="1.1"
   id="svg5"
   xml:space="preserve"
   inkscape:export-filename="mapPoland.png"
   inkscape:export-xdpi="96"
   inkscape:export-ydpi="96"
   xmlns:inkscape="http://www.inkscape.org/namespaces/inkscape"
   xmlns:sodipodi="http://sodipodi.sourceforge.net/DTD/sodipodi-0.dtd"
   xmlns="http://www.w3.org/2000/svg"
   xmlns:svg="http://www.w3.org/2000/svg"><sodipodi:namedview
     id="namedview7"
     pagecolor="#505050"
     bordercolor="#eeeeee"
     borderopacity="1"
     inkscape:showpageshadow="0"
     inkscape:pageopacity="0"
     inkscape:pagecheckerboard="0"
     inkscape:deskcolor="#505050"
     inkscape:document-units="px"
     showgrid="false" /><defs
     id="defs2" /><g
     inkscape:label="Warstwa 1"
     inkscape:groupmode="layer"
     id="layer1"><path
       style="fill:#d1d1d1;fill-opacity:1;stroke:none;stroke-width:5;stroke-linecap:square;stroke-linejoin:round"
       d="m 0,165.73134 13.850746,-70.049748 11.144279,9.870648 h 2.547264 L 25.631841,93.293532 13.21393,84.218906 154.10945,54.288557 l -16.2388,51.422883 -27.54229,43.9403 -92.975126,36.1393 z"
       id="path233" /><path
       style="fill:#d1d1d1;fill-opacity:1;stroke:none;stroke-width:5;stroke-linecap:square;stroke-linejoin:round"
       d="m 233.07463,23.721393 -72.11941,30.567164 -16.39801,50.308463 19.10448,11.14427 5.89055,-8.1194 79.60199,3.02488 3.66169,-54.129357 4.61692,-3.343284 -9.55224,3.820896 -3.02488,-17.671642 h 9.87065 z"
       id="path289" /><path
       style="fill:#d1d1d1;fill-opacity:1;stroke:none;stroke-width:5;stroke-linecap:square;stroke-linejoin:round"
       d="m 141.61836,111.22332 -28.3687,44.46682 -15.084945,5.62871 -5.853859,57.52542 24.203454,32.42138 68.21998,42.55305 3.15207,10.35683 53.58533,-82.17918 -67.6571,-26.11722 -11.03228,-72.94809 z"
       id="path291" /><path
       style="fill:#d1d1d1;fill-opacity:1;stroke:none;stroke-width:5;stroke-linecap:square;stroke-linejoin:round"
       d="m 90.746269,164.93532 -69.890548,27.38309 2.38806,22.60696 3.343284,2.70647 -1.910448,57.31343 14.169154,18.14926 71.004979,-39.48259 -24.199009,-32.1592 z"
       id="path452" /><path
       style="fill:#d1d1d1;fill-opacity:1;stroke:none;stroke-width:5;stroke-linecap:square;stroke-linejoin:round"
       d="M 191.68159,311.24378 248.19901,224 l 9.55223,-8.27861 63.20398,41.71145 -4.1393,42.50746 -39.80099,40.1194 -50.78607,-21.49254 z"
       id="path454" /><path
       style="fill:#d1d1d1;fill-opacity:1;stroke:none;stroke-width:5;stroke-linecap:square;stroke-linejoin:round"
       d="m 141.21393,379.22388 45.85075,-62.56716 35.02487,7.32338 -35.02487,81.51244 -6.84577,7.80099 -8.91543,-9.39303 5.57214,-4.13931 1.43284,-10.98507 z"
       id="path456" /><path
       style="fill:#d1d1d1;fill-opacity:1;stroke:none;stroke-width:5;stroke-linecap:square;stroke-linejoin:round"
       d="m 136.1194,394.82587 -1.75124,-16.55721 49.19403,-67.50249 -5.25373,-12.89552 -62.24876,-38.68657 -78.646765,39.80099 -8.597015,35.34329 8.437811,-3.34329 v -6.04975 l 42.825871,24.99503 25.472638,6.36816 4.29851,3.50249 v 3.50248 l -9.23383,12.73632 20.2189,28.33831 z"
       id="path458" /><path
       style="fill:#d1d1d1;fill-opacity:1;stroke:none;stroke-width:5;stroke-linecap:square;stroke-linejoin:round"
       d="m 168.75622,120.0398 11.30348,68.45771 66.38806,25.31344 9.55224,-9.23384 22.60697,-54.28855 -28.65672,-33.43284 -75.9403,-3.18408 z"
       id="path460" /><path
       style="fill:#d1d1d1;fill-opacity:1;stroke:none;stroke-width:5;stroke-linecap:square;stroke-linejoin:round"
       d="M 256,60.019901 446.72637,59.701493 372.85572,124.1791 283.8607,144.23881 254.72637,113.67164 Z"
       id="path462" /><path
       style="fill:#d1d1d1;fill-opacity:1;stroke:none;stroke-width:5;stroke-linecap:square;stroke-linejoin:round"
       d="m 457.71144,61.134328 33.91045,119.562192 -34.54726,35.02487 -77.85075,-88.199 z"
       id="path464" /><path
       style="fill:#d1d1d1;fill-opacity:1;stroke:none;stroke-width:5;stroke-linecap:square;stroke-linejoin:round"
       d="m 261.57214,210.78607 c 0.63682,-0.79602 23.40298,-59.54229 23.40298,-59.54229 l 87.24379,-19.74129 77.69154,86.12935 -57.79105,29.45274 -7.64179,74.18905 L 323.02488,300.73632 327.32338,256 Z"
       id="path466" /><path
       style="fill:#d1d1d1;fill-opacity:1;stroke:none;stroke-width:5;stroke-linecap:square;stroke-linejoin:round"
       d="M 455.48259,224 512,333.37313 l -7.00497,6.68657 4.93532,8.43781 0.79602,21.33334 -18.94527,4.2985 -4.61692,14.80597 -44.57711,-5.09452 -41.71145,-39.64179 -10.34826,-19.10448 7.801,-71.9602 z"
       id="path468" /><path
       style="fill:#d1d1d1;fill-opacity:1;stroke:none;stroke-width:5;stroke-linecap:square;stroke-linejoin:round"
       d="M 285.77114,339.74129 319.52239,306.94527 384,328.1194 l 9.39304,17.35324 -35.34329,45.21393 -37.25373,3.82089 -27.38308,-21.65174 z"
       id="path470" /><path
       style="fill:#d1d1d1;fill-opacity:1;stroke:none;stroke-width:5;stroke-linecap:square;stroke-linejoin:round"
       d="m 193.27363,408.35821 35.34329,-83.74129 51.58209,21.65174 6.36815,28.33831 -42.18905,47.28358 20.53731,25.79104 -22.12935,19.26368 -12.57712,-24.0398 -7.96019,-2.54726 -2.54727,-17.99005 z"
       id="path472"
       sodipodi:nodetypes="ccccccccccc" /><path
       style="fill:#d1d1d1;fill-opacity:1;stroke:none;stroke-width:5;stroke-linecap:square;stroke-linejoin:round"
       d="m 292.29851,382.56716 -40.11941,39.00498 20.21891,25.15423 13.85075,33.91045 c 0,0 16.39801,1.59204 16.87562,0.95522 0.47761,-0.63682 12.73632,-12.0995 12.73632,-12.0995 l 22.28855,-4.93533 5.89055,5.73135 9.39304,-1.27363 0.95522,-7.00498 14.96517,1.43284 -12.57711,-66.70647 -35.9801,4.45771 z"
       id="path474" /><path
       style="fill:#d1d1d1;fill-opacity:1;stroke:none;stroke-width:5;stroke-linecap:square;stroke-linejoin:round"
       d="m 397.53234,351.36318 40.91542,39.00498 47.44279,4.45771 -39.16418,83.10448 4.77612,10.50746 c 0,0 -55.08458,-23.8806 -55.7214,-23.8806 -0.63681,0 -18.78606,0.47762 -18.78606,0.47762 l -14.00995,-70.52737 z"
       id="path476" /><text
       xml:space="preserve"
       style="font-weight:bold;font-size:16px;font-family:'Yu Gothic';-inkscape-font-specification:'Yu Gothic Bold';fill:#202027;fill-opacity:1;stroke:none;stroke-width:5;stroke-linecap:square;stroke-linejoin:round"
       x="160.40584"
       y="82.426285"
       id="text2345"><tspan
         id="tspan2343"
         x="160.40584"
         y="82.426285"
         sodipodi:role="line">pomorskie</tspan></text><text
       xml:space="preserve"
       style="font-weight:bold;font-size:16px;font-family:'Yu Gothic';-inkscape-font-specification:'Yu Gothic Bold';fill:#202027;fill-opacity:1;stroke:none;stroke-width:5;stroke-linecap:square;stroke-linejoin:round"
       x="35.573452"
       y="100.86649"
       id="text3298"><tspan
         sodipodi:role="line"
         id="tspan3296"
         x="35.573452"
         y="100.86649">zachodnio-</tspan><tspan
         sodipodi:role="line"
         x="35.573452"
         y="120.86649"
         id="tspan3300">pomorskie</tspan></text><text
       xml:space="preserve"
       style="font-weight:bold;font-size:16px;font-family:'Yu Gothic';-inkscape-font-specification:'Yu Gothic Bold';fill:#202027;fill-opacity:1;stroke:none;stroke-width:5;stroke-linecap:square;stroke-linejoin:round"
       x="281.88583"
       y="88.258186"
       id="text3304"><tspan
         sodipodi:role="line"
         id="tspan3302"
         x="281.88583"
         y="88.258186">warmińsko-</tspan><tspan
         sodipodi:role="line"
         x="281.88583"
         y="108.25819"
         id="tspan3306">mazurskie</tspan></text><text
       xml:space="preserve"
       style="font-weight:bold;font-size:16px;font-family:'Yu Gothic';-inkscape-font-specification:'Yu Gothic Bold';fill:#202027;fill-opacity:1;stroke:none;stroke-width:5;stroke-linecap:square;stroke-linejoin:round"
       x="398.06241"
       y="138.24113"
       id="text3310"><tspan
         sodipodi:role="line"
         id="tspan3308"
         x="398.06241"
         y="138.24113">podlaskie</tspan></text><text
       xml:space="preserve"
       style="font-weight:bold;font-size:16px;font-family:'Yu Gothic';-inkscape-font-specification:'Yu Gothic Bold';fill:#202027;fill-opacity:1;stroke:none;stroke-width:5;stroke-linecap:square;stroke-linejoin:round"
       x="307.10245"
       y="208.48744"
       id="text3314"><tspan
         sodipodi:role="line"
         id="tspan3312"
         x="307.10245"
         y="208.48744">mazowieckie</tspan></text><text
       xml:space="preserve"
       style="font-weight:bold;font-size:16px;font-family:'Yu Gothic';-inkscape-font-specification:'Yu Gothic Bold';fill:#202027;fill-opacity:1;stroke:none;stroke-width:5;stroke-linecap:square;stroke-linejoin:round"
       x="184.6217"
       y="154.45183"
       id="text3318"><tspan
         sodipodi:role="line"
         id="tspan3316"
         x="184.6217"
         y="154.45183">kujawsko-</tspan><tspan
         sodipodi:role="line"
         x="184.6217"
         y="174.45183"
         id="tspan3320">pomorskie</tspan></text><text
       xml:space="preserve"
       style="font-weight:bold;font-size:16px;font-family:'Yu Gothic';-inkscape-font-specification:'Yu Gothic Bold';fill:#202027;fill-opacity:1;stroke:none;stroke-width:5;stroke-linecap:square;stroke-linejoin:round"
       x="113.47481"
       y="232.80348"
       id="text3324"><tspan
         sodipodi:role="line"
         id="tspan3322"
         x="113.47481"
         y="232.80348">wielkopolskie</tspan></text><text
       xml:space="preserve"
       style="font-weight:bold;font-size:16px;font-family:'Yu Gothic';-inkscape-font-specification:'Yu Gothic Bold';fill:#202027;fill-opacity:1;stroke:none;stroke-width:5;stroke-linecap:square;stroke-linejoin:round"
       x="31.520779"
       y="251.71594"
       id="text3328"><tspan
         sodipodi:role="line"
         id="tspan3326"
         x="31.520779"
         y="251.71594">lubuskie</tspan></text><text
       xml:space="preserve"
       style="font-weight:bold;font-size:16px;font-family:'Yu Gothic';-inkscape-font-specification:'Yu Gothic Bold';fill:#202027;fill-opacity:1;stroke:none;stroke-width:5;stroke-linecap:square;stroke-linejoin:round"
       x="60.790077"
       y="313.8569"
       id="text3332"><tspan
         sodipodi:role="line"
         id="tspan3330"
         x="60.790077"
         y="313.8569">dolnośląskie</tspan></text><text
       xml:space="preserve"
       style="font-weight:bold;font-size:16px;font-family:'Yu Gothic';-inkscape-font-specification:'Yu Gothic Bold';fill:#202027;fill-opacity:1;stroke:none;stroke-width:5;stroke-linecap:square;stroke-linejoin:round"
       x="237.75674"
       y="289.54086"
       id="text3336"><tspan
         sodipodi:role="line"
         id="tspan3334"
         x="237.75674"
         y="289.54086">łódzkie</tspan></text><text
       xml:space="preserve"
       style="font-weight:bold;font-size:16px;font-family:'Yu Gothic';-inkscape-font-specification:'Yu Gothic Bold';fill:#202027;fill-opacity:1;stroke:none;stroke-width:5;stroke-linecap:square;stroke-linejoin:round"
       x="413.87744"
       y="320.68472"
       id="text3340"><tspan
         sodipodi:role="line"
         id="tspan3338"
         x="413.87744"
         y="320.68472">lubelskie</tspan></text><text
       xml:space="preserve"
       style="font-weight:bold;font-size:14px;font-family:'Yu Gothic';-inkscape-font-specification:'Yu Gothic Bold';fill:#202027;fill-opacity:1;stroke:none;stroke-width:5;stroke-linecap:square;stroke-linejoin:round"
       x="377.79904"
       y="424.17966"
       id="text3344"><tspan
         sodipodi:role="line"
         id="tspan3342"
         x="377.79904"
         y="424.17966">podkarpackie</tspan></text><text
       xml:space="preserve"
       style="font-weight:bold;font-size:16px;font-family:'Yu Gothic';-inkscape-font-specification:'Yu Gothic Bold';fill:#202027;fill-opacity:1;stroke:none;stroke-width:5;stroke-linecap:square;stroke-linejoin:round"
       x="266.12546"
       y="430.4838"
       id="text3348"><tspan
         sodipodi:role="line"
         id="tspan3346"
         x="266.12546"
         y="430.4838">małopolskie</tspan></text><text
       xml:space="preserve"
       style="font-weight:bold;font-size:13px;font-family:'Yu Gothic';-inkscape-font-specification:'Yu Gothic Bold';fill:#202027;fill-opacity:1;stroke:none;stroke-width:5;stroke-linecap:square;stroke-linejoin:round"
       x="293.14325"
       y="354.83392"
       id="text3352"><tspan
         sodipodi:role="line"
         id="tspan3350"
         x="293.14325"
         y="354.83392">świętokrzyskie</tspan></text><text
       xml:space="preserve"
       style="font-weight:bold;font-size:16px;font-family:'Yu Gothic';-inkscape-font-specification:'Yu Gothic Bold';fill:#202027;fill-opacity:1;stroke:none;stroke-width:5;stroke-linecap:square;stroke-linejoin:round"
       x="216.14249"
       y="382.30203"
       id="text3356"><tspan
         sodipodi:role="line"
         id="tspan3354"
         x="216.14249"
         y="382.30203">śląskie</tspan></text><text
       xml:space="preserve"
       style="font-weight:bold;font-size:10.7094px;font-family:'Yu Gothic';-inkscape-font-specification:'Yu Gothic Bold';fill:#202027;fill-opacity:1;stroke:none;stroke-width:5;stroke-linecap:square;stroke-linejoin:round"
       x="156.36261"
       y="369.68967"
       id="text3360"><tspan
         sodipodi:role="line"
         id="tspan3358"
         x="156.36261"
         y="369.68967"
         style="stroke-width:5">opolskie</tspan></text></g></svg>
